<svg version="1.1" xmlns="http://www.w3.org/2000/svg" xmlns:xlink="http://www.w3.org/1999/xlink" viewBox="0,0,1024,1024">
	<desc>home icon - Licensed under Apache License v2.0 (http://www.apache.org/licenses/LICENSE-2.0) - Created with Iconfu.com - Derivative work of Material icons (Copyright Google Inc.)</desc>
	<defs>
		<linearGradient x1="512" y1="0" x2="512" y2="1024" gradientUnits="userSpaceOnUse" id="color-2JizWmcQ">
			<stop offset="0" stop-color="#000077"/>
			<stop offset="0.17" stop-color="#000077"/>
			<stop offset="0.17" stop-color="#000083"/>
			<stop offset="0.33" stop-color="#000083"/>
			<stop offset="0.33" stop-color="#000077"/>
			<stop offset="0.5" stop-color="#000077"/>
			<stop offset="0.5" stop-color="#001a68"/>
			<stop offset="0.67" stop-color="#001a68"/>
			<stop offset="0.67" stop-color="#003057"/>
			<stop offset="0.83" stop-color="#003057"/>
			<stop offset="0.83" stop-color="#004343"/>
			<stop offset="1" stop-color="#004343"/>
		</linearGradient>
		<linearGradient x1="325.33" y1="414.93" x2="1517.87" y2="1607.47" id="color-UO2Nr2YV" gradientUnits="userSpaceOnUse">
			<stop offset="0.06" stop-color="#ffffff"/>
			<stop offset="0.56" stop-color="#000000"/>
		</linearGradient>
		<linearGradient x1="512" y1="0" x2="512" y2="1024" gradientUnits="userSpaceOnUse" id="color-vNHxEKJQ">
			<stop offset="0" stop-color="#6000ff"/>
			<stop offset="0.17" stop-color="#6000ff"/>
			<stop offset="0.17" stop-color="#5748f0"/>
			<stop offset="0.33" stop-color="#5748f0"/>
			<stop offset="0.33" stop-color="#4d68e0"/>
			<stop offset="0.5" stop-color="#4d68e0"/>
			<stop offset="0.5" stop-color="#4282d1"/>
			<stop offset="0.67" stop-color="#4282d1"/>
			<stop offset="0.67" stop-color="#3699c1"/>
			<stop offset="0.83" stop-color="#3699c1"/>
			<stop offset="0.83" stop-color="#27aeb0"/>
			<stop offset="1" stop-color="#27aeb0"/>
		</linearGradient>
		<mask id="mask-eSQ9zyCZ">
			<rect fill="url(#color-UO2Nr2YV)" x="213.33" y="526.93" width="810.67" height="497.07"/>
		</mask>
	</defs>
	<g fill="none" fill-rule="nonzero" style="mix-blend-mode: normal">
		<path d="M825.75,1024h-627.51c-109.49,0 -198.25,-88.76 -198.25,-198.25v-627.51c0,-109.49 88.76,-198.25 198.25,-198.25h627.51c109.49,0 198.25,88.76 198.25,198.25v627.51c0,109.49 -88.76,198.25 -198.25,198.25z" fill="url(#color-vNHxEKJQ)"/>
		<g fill="url(#color-2JizWmcQ)">
			<path d="M213.33,526.93h89.6l149.34,149.34v-89.61h119.46l149.34,149.34v-209.07h89.6l213.33,213.33v85.49c0,109.49 -88.76,198.25 -198.25,198.25h-264.69l-258.13,-258.13h149.33z" mask="url(#mask-eSQ9zyCZ)"/>
		</g>
		<path d="M302.93,765.87v-238.93h-89.6l298.67,-268.8l298.67,268.8h-89.6v238.93h-149.34v-179.2h-119.46v179.2z" fill="#ffffff"/>
	</g>
</svg>