<svg version="1.1" xmlns="http://www.w3.org/2000/svg" xmlns:xlink="http://www.w3.org/1999/xlink" viewBox="0,0,1024,1024">
	<desc>mail icon - Licensed under Apache License v2.0 (http://www.apache.org/licenses/LICENSE-2.0) - Created with Iconfu.com - Derivative work of Material icons (Copyright Google Inc.)</desc>
	<defs>
		<linearGradient x1="302.93" y1="302.93" x2="1582.45" y2="1582.45" id="color-DFmDn0iS" gradientUnits="userSpaceOnUse">
			<stop offset="0.06" stop-color="#ffffff"/>
			<stop offset="0.56" stop-color="#000000"/>
		</linearGradient>
		<linearGradient x1="512" y1="0" x2="512" y2="1024" gradientUnits="userSpaceOnUse" id="color-H6jixgY8">
			<stop offset="0" stop-color="#6000ff"/>
			<stop offset="0.17" stop-color="#6000ff"/>
			<stop offset="0.17" stop-color="#5748f0"/>
			<stop offset="0.33" stop-color="#5748f0"/>
			<stop offset="0.33" stop-color="#4d68e0"/>
			<stop offset="0.5" stop-color="#4d68e0"/>
			<stop offset="0.5" stop-color="#4282d1"/>
			<stop offset="0.67" stop-color="#4282d1"/>
			<stop offset="0.67" stop-color="#3699c1"/>
			<stop offset="0.83" stop-color="#3699c1"/>
			<stop offset="0.83" stop-color="#27aeb0"/>
			<stop offset="1" stop-color="#27aeb0"/>
		</linearGradient>
		<linearGradient x1="512" y1="0" x2="512" y2="1024" gradientUnits="userSpaceOnUse" id="color-XTkZLUUy">
			<stop offset="0" stop-color="#000077"/>
			<stop offset="0.17" stop-color="#000077"/>
			<stop offset="0.17" stop-color="#000083"/>
			<stop offset="0.33" stop-color="#000083"/>
			<stop offset="0.33" stop-color="#000077"/>
			<stop offset="0.5" stop-color="#000077"/>
			<stop offset="0.5" stop-color="#001a68"/>
			<stop offset="0.67" stop-color="#001a68"/>
			<stop offset="0.67" stop-color="#003057"/>
			<stop offset="0.83" stop-color="#003057"/>
			<stop offset="0.83" stop-color="#004343"/>
			<stop offset="1" stop-color="#004343"/>
		</linearGradient>
		<mask id="mask-FZ8QHu5J">
			<rect fill="url(#color-DFmDn0iS)" x="230.88" y="290.62" width="793.12" height="733.38"/>
		</mask>
	</defs>
	<g fill="none" fill-rule="nonzero" style="mix-blend-mode: normal">
		<path d="M825.75,1024h-627.51c-109.49,0 -198.25,-88.76 -198.25,-198.25v-627.51c0,-109.49 88.76,-198.25 198.25,-198.25h627.51c109.49,0 198.25,88.76 198.25,198.25v627.51c0,109.49 -88.76,198.25 -198.25,198.25z" fill="url(#color-H6jixgY8)"/>
		<g fill="url(#color-XTkZLUUy)">
			<path d="M273.07,392.53v-59.73l238.93,149.33l238.93,-149.33l59.74,59.74v-59.74c0,-16.42 -6.72,-31.36 -17.55,-42.18l230.88,230.88v304.26c0,109.49 -88.76,198.25 -198.25,198.25h-304.26l-290.62,-290.62c10.83,10.83 25.76,17.55 42.19,17.55h358.4z" mask="url(#mask-FZ8QHu5J)"/>
		</g>
		<path d="M810.67,332.8v358.4c0,32.85 -26.89,59.73 -59.74,59.73h-477.86c-32.85,0 -59.74,-26.88 -59.74,-59.73l0.3,-358.4c0,-32.85 26.59,-59.73 59.44,-59.73h477.86c32.85,0 59.74,26.88 59.74,59.73zM750.93,332.8l-238.93,149.33l-238.93,-149.33v59.73l238.93,149.34l238.93,-149.34z" fill="#ffffff"/>
	</g>
</svg>