<svg version="1.1" xmlns="http://www.w3.org/2000/svg" xmlns:xlink="http://www.w3.org/1999/xlink" viewBox="0,0,1024,1024">
	<desc>school icon - Licensed under Apache License v2.0 (http://www.apache.org/licenses/LICENSE-2.0) - Created with Iconfu.com - Derivative work of Material icons (Copyright Google Inc.)</desc>
	<defs>
		<linearGradient x1="316.52" y1="289.35" x2="1583.72" y2="1556.54" id="color-ctT2oVvk" gradientUnits="userSpaceOnUse">
			<stop offset="0.06" stop-color="#ffffff"/>
			<stop offset="0.56" stop-color="#000000"/>
		</linearGradient>
		<linearGradient x1="512" y1="0" x2="512" y2="1024" gradientUnits="userSpaceOnUse" id="color-gRHVMAMS">
			<stop offset="0" stop-color="#6000ff"/>
			<stop offset="0.17" stop-color="#6000ff"/>
			<stop offset="0.17" stop-color="#5748f0"/>
			<stop offset="0.33" stop-color="#5748f0"/>
			<stop offset="0.33" stop-color="#4d68e0"/>
			<stop offset="0.5" stop-color="#4d68e0"/>
			<stop offset="0.5" stop-color="#4282d1"/>
			<stop offset="0.67" stop-color="#4282d1"/>
			<stop offset="0.67" stop-color="#3699c1"/>
			<stop offset="0.83" stop-color="#3699c1"/>
			<stop offset="0.83" stop-color="#27aeb0"/>
			<stop offset="1" stop-color="#27aeb0"/>
		</linearGradient>
		<linearGradient x1="512" y1="0" x2="512" y2="1024" gradientUnits="userSpaceOnUse" id="color-JK6e1ghS">
			<stop offset="0" stop-color="#000077"/>
			<stop offset="0.17" stop-color="#000077"/>
			<stop offset="0.17" stop-color="#000083"/>
			<stop offset="0.33" stop-color="#000083"/>
			<stop offset="0.33" stop-color="#000077"/>
			<stop offset="0.5" stop-color="#000077"/>
			<stop offset="0.5" stop-color="#001a68"/>
			<stop offset="0.67" stop-color="#001a68"/>
			<stop offset="0.67" stop-color="#003057"/>
			<stop offset="0.83" stop-color="#003057"/>
			<stop offset="0.83" stop-color="#004343"/>
			<stop offset="1" stop-color="#004343"/>
		</linearGradient>
		<mask id="mask-NewyemAj">
			<rect fill="url(#color-ctT2oVvk)" x="183.47" y="422.4" width="840.53" height="601.6"/>
		</mask>
	</defs>
	<g fill="none" fill-rule="nonzero" style="mix-blend-mode: normal">
		<path d="M825.75,1024h-627.51c-109.49,0 -198.25,-88.76 -198.25,-198.25v-627.51c0,-109.49 88.76,-198.25 198.25,-198.25h627.51c109.49,0 198.25,88.76 198.25,198.25v627.51c0,109.49 -88.76,198.25 -198.25,198.25z" fill="url(#color-gRHVMAMS)"/>
		<g fill="url(#color-JK6e1ghS)">
			<path d="M302.93,666.71l209.07,114.09l19.32,-10.55l-347.85,-347.85l328.53,179.2l268.8,-146.64l59.73,59.73v-92.29l183.47,183.47v219.89c0,109.49 -88.76,198.25 -198.25,198.25h-165.53z" mask="url(#mask-NewyemAj)"/>
		</g>
		<path d="M840.53,422.4v238.93h-59.73v-206.37l-268.8,146.64l-328.53,-179.2l328.53,-179.2zM512,661.33l209.07,-114.09v119.46l-209.07,114.09l-209.07,-114.09v-119.46z" fill="#ffffff"/>
	</g>
</svg>